<?xml version="1.0" standalone="no"?>
<!DOCTYPE svg PUBLIC "-//W3C//DTD SVG 20010904//EN"
 "http://www.w3.org/TR/2001/REC-SVG-20010904/DTD/svg10.dtd">
<svg version="1.0" xmlns="http://www.w3.org/2000/svg"
 width="705.000000pt" height="244.000000pt" viewBox="0 0 705.000000 244.000000"
 preserveAspectRatio="xMidYMid meet">

<g transform="translate(0.000000,244.000000) scale(0.100000,-0.100000)"
fill="#000000" stroke="none">
<path d="M2367 2181 l-169 -26 51 -19 c28 -10 51 -21 51 -25 0 -3 -7 -100 -15
-216 -8 -115 -15 -219 -15 -230 0 -12 -13 -28 -31 -39 -17 -10 -28 -20 -26
-22 5 -5 437 -51 437 -47 0 1 -22 14 -48 27 l-48 24 -52 198 c-29 108 -51 199
-49 200 2 2 70 -93 151 -212 82 -118 151 -216 155 -218 3 -2 53 2 111 8 l105
11 -43 14 c-24 8 -45 17 -47 21 -3 5 45 382 60 468 4 23 14 36 33 44 23 10 11
13 -98 24 -69 7 -145 14 -169 17 l-44 5 31 -20 c24 -15 32 -28 36 -61 12 -88
36 -361 32 -364 -2 -2 -51 101 -109 229 -58 128 -110 233 -114 234 -4 1 -84
-11 -176 -25z"/>
<path d="M130 2151 c0 -4 9 -20 21 -34 34 -44 85 -164 127 -302 22 -71 59
-189 81 -262 79 -253 148 -381 266 -491 73 -69 158 -113 265 -139 71 -17 72
-18 44 -29 l-29 -12 45 -6 c25 -3 72 -8 105 -11 82 -9 238 -48 338 -86 45 -18
206 -87 357 -154 392 -174 527 -215 709 -215 158 0 278 46 377 145 34 33 71
79 83 103 l21 42 -130 0 -130 0 -44 -34 c-64 -49 -135 -70 -231 -69 -126 2
-244 31 -627 157 -76 25 -182 57 -235 72 -138 37 -139 38 -52 64 167 49 263
148 389 400 62 124 111 203 152 246 l29 31 -23 7 c-49 13 -186 6 -263 -14
-174 -44 -280 -136 -445 -385 -40 -60 -95 -140 -121 -176 -27 -37 -49 -69 -49
-72 0 -4 20 2 45 13 76 32 213 130 298 212 45 43 83 78 85 78 2 0 -9 -22 -24
-49 -58 -107 -178 -214 -297 -265 -44 -19 -66 -21 -144 -18 l-91 3 -60 55
c-80 72 -134 146 -243 329 -50 83 -108 175 -130 204 -22 29 -38 58 -36 64 7
23 120 -111 235 -280 162 -239 240 -323 321 -348 23 -7 23 -6 16 46 -9 74 -50
233 -81 321 -29 81 -121 270 -156 321 -196 281 -391 436 -653 521 -83 27 -115
32 -115 17z"/>
<path d="M3187 2020 c-140 -36 -219 -203 -154 -330 60 -120 236 -152 406 -75
31 15 57 22 59 17 1 -5 8 -17 15 -26 11 -15 12 -7 9 51 -5 95 -8 101 -35 76
-60 -56 -156 -69 -234 -33 -24 10 -43 20 -43 22 0 2 33 3 73 3 57 1 81 6 117
25 160 89 92 259 -110 274 -36 3 -82 1 -103 -4z m63 -69 c16 -30 12 -50 -15
-76 -27 -28 -80 -33 -110 -11 -18 13 -18 14 3 43 20 29 73 62 99 63 7 0 17 -9
23 -19z"/>
<path d="M3683 2016 c-162 -12 -195 -18 -149 -30 21 -5 29 -19 51 -94 15 -48
39 -127 55 -177 l28 -90 -31 -28 c-25 -22 -27 -27 -12 -23 11 2 74 8 140 11
l120 7 -34 28 -33 28 32 47 33 47 60 -61 c59 -58 61 -61 42 -75 -29 -21 -13
-24 144 -29 138 -4 142 -2 83 32 -11 6 -8 27 16 107 17 54 42 139 57 187 22
74 31 91 58 108 l32 21 -64 -6 c-35 -3 -112 -6 -170 -6 l-106 0 31 -20 32 -20
-25 -100 c-14 -55 -28 -100 -32 -100 -3 0 -15 21 -25 48 -11 26 -30 71 -43
101 l-24 54 -70 -101 c-38 -56 -74 -104 -79 -107 -6 -4 -10 36 -10 104 l0 111
38 19 c20 11 33 20 27 19 -5 0 -83 -6 -172 -12z"/>
<path d="M2670 1372 l55 -27 37 -220 c20 -121 39 -236 42 -256 l6 -35 -71 -34
c-39 -19 -66 -36 -60 -38 18 -6 402 38 458 52 114 30 173 87 173 169 0 78 -50
125 -150 142 l-45 8 30 10 c107 35 146 143 71 192 -40 26 -86 33 -306 44 -113
6 -225 13 -250 16 l-45 4 55 -27z m351 -98 c39 -35 12 -76 -59 -90 -30 -6 -32
-5 -32 24 0 16 -3 44 -7 62 l-6 33 42 -6 c24 -3 51 -13 62 -23z m3 -237 c16
-25 -9 -63 -68 -104 -27 -18 -51 -32 -53 -30 -8 9 17 141 29 149 21 14 80 5
92 -15z"/>
<path d="M4566 1366 c-26 -7 -52 -20 -57 -27 -32 -50 24 -82 146 -83 109 -1
173 28 158 72 -15 40 -159 63 -247 38z"/>
<path d="M3527 1210 c-140 -36 -219 -203 -154 -330 60 -120 236 -152 406 -75
31 15 57 22 59 17 1 -5 8 -17 15 -26 11 -15 12 -7 9 51 -5 95 -8 101 -35 76
-60 -56 -156 -69 -234 -33 -24 10 -43 20 -43 22 0 2 33 3 73 3 57 1 81 6 117
25 160 89 92 259 -110 274 -36 3 -82 1 -103 -4z m63 -69 c16 -30 12 -50 -15
-76 -27 -28 -80 -33 -110 -11 -18 13 -18 14 3 43 20 29 73 62 99 63 7 0 17 -9
23 -19z"/>
<path d="M4032 1207 c-39 -15 -87 -59 -109 -100 -8 -17 -18 -59 -21 -94 -16
-205 180 -305 328 -167 46 43 48 44 54 22 10 -40 6 -98 -9 -128 -45 -87 -150
-94 -241 -17 l-32 27 -35 -73 c-35 -74 -38 -93 -11 -65 15 14 21 14 68 -3 77
-27 145 -33 212 -19 49 10 67 20 105 59 31 30 51 61 60 91 19 66 14 192 -11
300 -12 52 -24 105 -27 117 -4 15 1 23 17 28 36 11 10 22 -67 27 l-71 5 14
-40 c19 -53 18 -55 -13 -24 -36 33 -110 67 -148 66 -16 0 -45 -6 -63 -12z
m163 -118 c50 -46 62 -73 45 -94 -30 -37 -113 -1 -125 53 -7 32 9 82 25 82 6
0 30 -18 55 -41z"/>
<path d="M4633 1210 c-89 -3 -165 -8 -168 -11 -3 -3 13 -12 35 -19 23 -8 43
-18 46 -22 6 -9 -11 -261 -22 -326 -4 -27 -13 -37 -45 -51 -39 -18 -39 -18
119 -14 86 2 173 6 192 10 l35 6 -27 9 c-16 5 -28 13 -28 18 0 4 -12 87 -26
185 -14 97 -24 178 -22 180 2 1 30 12 63 23 33 11 49 20 35 20 -14 -1 -98 -4
-187 -8z"/>
<path d="M4940 1206 l-95 -11 33 -18 c17 -10 32 -23 32 -30 0 -6 -5 -84 -10
-171 -9 -155 -10 -160 -37 -189 -24 -25 -25 -29 -8 -24 11 3 62 9 113 13 50 4
92 8 92 9 0 1 -7 16 -16 34 -19 39 -12 93 17 122 26 26 74 25 93 -3 22 -31 20
-106 -3 -145 l-20 -31 57 4 c31 3 77 7 102 11 41 5 43 6 20 15 -34 13 -34 12
-7 60 85 147 71 305 -31 350 -69 31 -137 14 -225 -54 l-37 -30 20 47 c22 52
23 56 13 54 -5 -1 -51 -7 -103 -13z"/>
<path d="M5225 440 c-3 -5 -2 -10 3 -10 6 0 12 -6 15 -13 3 -7 -3 -13 -13 -13
-10 0 -16 4 -14 8 3 4 1 8 -3 8 -5 0 -14 -14 -20 -31 -10 -26 -9 -34 4 -47 18
-19 43 -25 43 -10 0 5 7 2 16 -6 8 -9 18 -16 22 -16 3 0 1 5 -6 12 -17 17 -15
31 3 24 20 -7 19 -6 -11 53 -27 54 -29 57 -39 41z"/>
<path d="M4403 424 l27 -15 1 -139 c1 -77 2 -154 3 -170 0 -18 -3 -29 -10 -26
-6 2 -17 0 -25 -5 -9 -5 12 -8 56 -8 57 1 63 3 35 9 l-35 7 31 2 31 1 -5 73
c-2 39 -9 76 -16 80 -7 6 -4 7 7 3 9 -3 17 -1 17 4 0 6 18 10 40 10 30 0 47
-6 63 -24 l23 -24 2 25 c1 14 -3 32 -9 39 -9 10 -9 14 0 14 6 0 11 8 11 17 0
14 -3 13 -16 -6 -12 -17 -13 -26 -5 -34 19 -19 12 -31 -7 -14 -12 11 -36 17
-65 17 -25 0 -49 4 -52 10 -3 6 -3 10 2 10 14 0 6 112 -9 122 -10 8 -9 8 5 4
9 -3 17 -1 17 4 0 6 8 10 18 10 14 0 15 2 2 10 -8 5 -17 5 -20 0 -8 -13 -73
-15 -97 -2 -12 7 -28 12 -35 12 -7 -1 -1 -8 15 -16z m44 -256 c-3 -7 -5 -2 -5
12 0 14 2 19 5 13 2 -7 2 -19 0 -25z m13 -28 c0 -5 -4 -10 -10 -10 -5 0 -10 5
-10 10 0 6 5 10 10 10 6 0 10 -4 10 -10z"/>
<path d="M4478 433 c7 -3 16 -2 19 1 4 3 -2 6 -13 5 -11 0 -14 -3 -6 -6z"/>
<path d="M4620 430 c-13 -8 -13 -10 1 -10 9 0 22 -7 29 -15 7 -8 18 -15 24
-14 7 0 6 2 -1 6 -7 2 -13 11 -13 19 0 9 5 12 10 9 6 -3 10 -1 10 4 0 14 -40
14 -60 1z"/>
<path d="M5813 428 c-2 -5 7 -8 21 -8 14 0 26 -5 26 -11 0 -6 -6 -9 -14 -6
-13 5 -15 -16 -15 -133 0 -86 4 -142 11 -146 6 -4 5 -10 -3 -15 -10 -6 -7 -9
10 -9 31 0 23 -8 -26 -25 -38 -14 -37 -14 47 -14 55 -1 80 3 70 8 -8 6 -18 7
-24 4 -5 -3 -6 -2 -3 4 7 11 -7 166 -19 202 -5 17 -4 22 4 17 14 -9 15 -1 3
42 -6 20 -6 30 0 27 5 -4 9 3 9 15 0 12 -4 19 -9 15 -5 -3 -12 -1 -15 4 -3 5
8 14 24 20 17 5 30 12 30 15 0 7 -122 2 -127 -6z"/>
<path d="M5975 433 c11 -3 24 -11 28 -19 4 -8 13 -14 20 -14 7 0 6 4 -3 10
-12 7 -8 10 15 10 36 0 63 -14 46 -24 -6 -4 -11 -2 -11 3 0 6 -6 11 -14 11 -9
0 -12 -7 -9 -22 4 -19 3 -20 -6 -8 -8 11 -10 7 -5 -17 4 -22 1 -41 -10 -58
-19 -28 -15 -33 8 -9 9 8 16 11 16 5 0 -6 11 -11 25 -11 16 0 25 6 25 16 0 8
4 13 8 10 5 -3 9 14 11 36 2 36 0 40 -13 29 -13 -11 -14 -9 -10 13 5 29 -9 35
-88 40 -29 2 -44 1 -33 -1z"/>
<path d="M6548 430 c13 -6 22 -18 23 -32 0 -13 3 -17 6 -10 4 10 9 7 17 -10 6
-12 19 -23 28 -23 25 0 30 -10 22 -40 l-7 -28 -13 29 c-15 36 -18 28 -3 -13 8
-24 15 -30 30 -26 15 4 18 2 13 -11 -3 -9 -10 -13 -15 -10 -5 3 -9 0 -9 -5 0
-6 6 -11 14 -11 8 0 17 -7 20 -16 9 -24 7 -31 -5 -14 -9 12 -10 12 -5 -3 3
-10 6 -23 6 -28 0 -6 4 -8 9 -5 11 7 23 -22 14 -36 -3 -7 -1 -8 5 -4 8 5 12
-1 12 -17 0 -14 7 -30 15 -37 12 -10 16 -8 24 11 6 18 5 26 -8 31 -13 5 -12 7
5 7 12 1 25 8 28 17 10 26 6 30 -8 11 -8 -11 -17 -14 -20 -8 -4 5 -2 12 3 15
16 10 -21 126 -40 126 -5 0 -6 7 -3 15 4 8 1 15 -5 15 -6 0 -11 -6 -11 -12 0
-10 -3 -9 -9 1 -7 11 -11 10 -20 -5 -6 -11 -10 -14 -11 -9 0 19 18 38 29 31
21 -13 11 43 -11 65 -13 12 -17 19 -10 15 6 -4 12 -3 12 2 0 18 -26 31 -58 30
-32 -1 -32 -2 -15 -21 18 -19 17 -20 -4 -8 -13 6 -23 16 -23 21 0 6 -10 10
-22 9 l-23 0 23 -9z m92 -10 c0 -5 -5 -10 -11 -10 -5 0 -7 5 -4 10 3 6 8 10
11 10 2 0 4 -4 4 -10z m98 -205 c-3 -3 -9 2 -12 12 -6 14 -5 15 5 6 7 -7 10
-15 7 -18z"/>
<path d="M6927 433 c-46 -4 -48 -6 -43 -28 3 -13 2 -27 -4 -30 -5 -3 -7 0 -4
8 3 8 -1 18 -8 23 -7 4 -10 4 -6 -1 4 -4 3 -16 -2 -26 -8 -13 -6 -20 6 -27 13
-7 15 -29 12 -140 -2 -73 0 -132 5 -132 4 0 7 9 7 20 0 11 5 20 10 20 6 0 10
-9 10 -20 0 -11 5 -20 11 -20 5 0 7 -4 4 -10 -4 -6 9 -10 31 -10 33 0 35 2 23
17 -10 12 -15 59 -18 173 -3 155 -3 158 20 174 13 9 17 15 9 14 -8 -1 -37 -3
-63 -5z m-30 -140 c-3 -10 -5 -2 -5 17 0 19 2 27 5 18 2 -10 2 -26 0 -35z m50
-45 c-3 -7 -5 -2 -5 12 0 14 2 19 5 13 2 -7 2 -19 0 -25z m-50 -55 c-2 -16 -4
-5 -4 22 0 28 2 40 4 28 2 -13 2 -35 0 -50z m66 -122 c-9 -12 -23 18 -16 35 6
17 8 17 13 -6 4 -14 5 -27 3 -29z"/>
<path d="M6572 292 l2 -77 3 65 c2 35 9 67 14 71 7 4 4 9 -5 12 -14 6 -16 -4
-14 -71z"/>
<path d="M6841 343 c-1 -6 -4 -20 -7 -30 -5 -17 -5 -17 6 0 6 10 9 23 6 30 -3
9 -5 9 -5 0z"/>
<path d="M5166 325 c-9 -26 -7 -32 5 -12 6 10 9 21 6 23 -2 3 -7 -2 -11 -11z"/>
<path d="M5288 318 c-5 -11 -13 -15 -24 -11 -14 5 -15 3 -5 -15 9 -17 8 -19
-9 -15 -26 7 -25 -8 0 -37 11 -13 21 -30 21 -39 1 -9 2 -20 4 -26 1 -5 3 -19
4 -30 l2 -20 9 20 c7 16 9 12 9 -18 1 -21 4 -36 9 -34 9 6 33 -19 25 -27 -4
-3 16 -5 43 -5 l49 2 -40 7 c-22 4 -35 8 -28 9 7 0 10 8 7 16 -5 11 -2 13 10
9 17 -7 21 6 8 22 -5 5 -21 42 -36 82 -15 39 -32 72 -36 72 -5 0 -10 12 -12
28 -2 21 -5 23 -10 10z m52 -129 c0 -5 -4 -9 -8 -9 -5 0 -9 7 -9 15 0 8 4 12
9 9 4 -3 8 -9 8 -15z m17 -61 c-3 -8 -6 -5 -6 6 -1 11 2 17 5 13 3 -3 4 -12 1
-19z"/>
<path d="M5146 274 c-4 -9 -4 -19 -1 -22 2 -3 7 3 11 12 4 9 4 19 1 22 -2 3
-7 -3 -11 -12z"/>
<path d="M6038 273 c6 -2 18 -2 25 0 6 3 1 5 -13 5 -14 0 -19 -2 -12 -5z"/>
<path d="M5973 260 c-13 -5 -23 -11 -23 -13 0 -7 35 -1 50 8 13 8 13 6 1 -8
-7 -9 -17 -14 -22 -11 -5 3 -6 -2 -3 -10 3 -9 10 -16 15 -16 5 0 9 -6 9 -14 0
-8 9 -21 20 -29 11 -8 17 -17 13 -20 -3 -4 -2 -7 4 -7 6 0 13 -7 16 -14 4 -11
1 -13 -11 -10 -16 5 -16 4 0 -9 10 -8 15 -17 11 -20 -3 -4 5 -7 18 -8 22 0 23
-1 4 -9 -14 -6 -2 -9 40 -9 40 0 53 3 40 8 -11 5 -25 6 -31 4 -7 -2 -18 5 -26
16 -8 12 -19 18 -24 13 -4 -4 -3 0 4 9 6 9 9 19 5 23 -4 4 -1 11 7 16 11 7 12
10 2 10 -7 0 -10 4 -7 10 9 14 -13 50 -31 50 -8 0 -12 5 -9 11 7 11 -22 39
-40 38 -5 0 -20 -4 -32 -9z m49 -32 c-7 -7 -12 -8 -12 -2 0 14 12 26 19 19 2
-3 -1 -11 -7 -17z"/>
<path d="M6792 225 c-7 -14 -12 -31 -12 -38 1 -7 7 3 16 22 17 39 13 54 -4 16z"/>
<path d="M5110 183 c-11 -32 -20 -62 -20 -67 1 -5 -4 -13 -12 -17 -10 -7 -9
-9 5 -9 11 0 17 6 15 12 -3 7 6 40 19 72 12 33 21 61 19 64 -2 2 -14 -23 -26
-55z"/>
<path d="M5230 205 c0 -2 10 -10 23 -16 20 -11 21 -11 8 4 -13 16 -31 23 -31
12z"/>
<path d="M6563 155 c0 -22 2 -30 4 -17 2 12 2 30 0 40 -3 9 -5 -1 -4 -23z"/>
<path d="M6106 126 c5 -13 4 -17 -4 -12 -8 5 -10 2 -5 -10 6 -15 7 -15 16 1 6
11 5 21 -3 28 -8 9 -9 7 -4 -7z"/>
<path d="M6556 92 c-3 -5 1 -9 9 -9 8 0 12 4 9 9 -3 4 -7 8 -9 8 -2 0 -6 -4
-9 -8z"/>
<path d="M5100 69 c0 -5 11 -9 25 -9 14 0 25 2 25 4 0 2 -11 6 -25 8 -14 3
-25 1 -25 -3z"/>
<path d="M6875 70 l-30 -8 33 -1 c17 0 32 4 32 9 0 6 -1 9 -2 9 -2 -1 -16 -5
-33 -9z"/>
<path d="M5048 63 c6 -2 18 -2 25 0 6 3 1 5 -13 5 -14 0 -19 -2 -12 -5z"/>
<path d="M5288 63 c6 -2 18 -2 25 0 6 3 1 5 -13 5 -14 0 -19 -2 -12 -5z"/>
<path d="M6548 63 c12 -2 30 -2 40 0 9 3 -1 5 -23 4 -22 0 -30 -2 -17 -4z"/>
</g>
</svg>
